# xmcd
#
# Track frame offsets:
#	150
#	16244
#	47948
#	67495
#	89634
#	107644
#	132480
#	147707
#	169958
#	207707
#	225101
#	251541
#	284775
#
# Disc length: 3805 seconds
#
# Revision: 1
# Processed by: cddbd v1.5.1PL0 Copyright (c) Steve Scherf et al.
# Submitted via: audiograbber 1.83.01
#
DISCID=d50edb0d
DTITLE=Brian Houston - Jesus and Justice
DYEAR=2005
DGENRE=
TTITLE0=God is my shepherd
TTITLE1=What a friend we have in Jesus
TTITLE2=Sweeter wine
TTITLE3=How Beautiful you are
TTITLE4=Wear my ring
TTITLE5=Want to be walking (in your ways)
TTITLE6=Jesus Christ
TTITLE7=When you carried me
TTITLE8=Everybody needs a healer
TTITLE9=Precious Lord
TTITLE10=The path or least resistance
TTITLE11=We don't need religion
TTITLE12=Data Track
EXTD=
EXTT0=
EXTT1=
EXTT2=
EXTT3=
EXTT4=
EXTT5=
EXTT6=
EXTT7=
EXTT8=
EXTT9=
EXTT10=
EXTT11=
EXTT12=
PLAYORDER=
